<svg width="88" height="96" viewBox="0 0 88 96" fill="none" xmlns="http://www.w3.org/2000/svg">
<path d="M23.8973 58.4117C23.6188 58.4647 23.4696 58.3168 23.4291 58.1291C23.319 57.6217 23.0337 55.8841 22.9443 55.3726C22.8948 55.0913 22.9814 54.9373 23.2345 54.8548C24.4735 54.4539 26.5597 53.7485 28.2388 53.1571C28.6706 53.0045 28.8053 52.8333 29.0481 52.4462C29.7508 51.3254 31.4766 48.2794 32.2914 46.7006C32.407 46.4765 32.398 46.209 32.2681 45.9931L31.8968 45.3743C31.7696 45.1618 31.4705 44.9383 31.2305 44.8771C29.5239 44.4405 27.2651 43.887 26.1987 43.6305C25.9615 43.5735 25.7146 43.5831 25.4822 43.6574L25.2869 43.7199C26.9227 44.2769 28.3151 44.7761 30.0801 45.4478C30.2321 45.5056 30.3971 45.6816 30.4439 45.837L30.6062 46.3699C30.6722 46.5865 30.6508 46.8189 30.5484 47.0204C29.7989 48.4891 28.4987 50.4356 27.4625 51.6871C27.3064 51.8755 27.1063 52.0185 26.8773 52.1044C25.8748 52.4799 24.0506 53.0829 23.2558 53.2871C23.0976 53.3277 23.0193 53.3091 22.8879 53.2176C22.3103 52.8133 21.1167 51.6939 21.1167 51.6939C21.1167 51.6939 21.0163 52.911 21.0101 53.4562C21.0094 53.5167 21.0211 53.5766 21.0445 53.6323C21.248 54.1088 21.6076 55.0205 21.7575 55.484C21.7967 55.6043 21.8276 55.7095 21.8586 55.8326C22.0594 56.6329 22.6129 58.9886 22.6129 58.9886C22.6933 59.3455 22.8948 59.4692 23.2097 59.4012C23.6154 59.3132 24.9129 58.9487 25.4444 58.772C25.5262 58.7445 25.5991 58.7012 25.6624 58.6428C26.0055 58.3285 26.581 57.7977 26.581 57.7977C26.581 57.7977 24.6303 58.2721 23.8973 58.4117Z" fill="white"/>
<path d="M26.8381 51.183C27.501 50.3833 28.3777 49.1002 29.1113 47.8928L23.6835 52.3684C24.5732 52.0975 25.7799 51.689 26.5054 51.4174C26.6367 51.3686 26.7515 51.2875 26.8381 51.183Z" fill="white"/>
<path d="M26.9653 33.1516L25.9944 33.2348C25.9167 33.2417 25.8555 33.3036 25.8494 33.3813L25.7586 34.533C25.7538 34.5928 25.8081 34.6402 25.8672 34.6272L26.8484 34.4099C26.966 34.3838 27.1083 34.2751 27.1565 34.1644C27.2761 33.8894 27.3084 33.5697 27.1854 33.2829C27.1475 33.197 27.0588 33.144 26.9653 33.1516Z" fill="white"/>
<path d="M17.5095 47.5684L18.9816 49.2963L19.4148 46.3087C18.5622 46.4394 17.779 46.9874 17.5095 47.5684Z" fill="white"/>
<path d="M65.5552 47.2548C64.9549 46.1877 61.9632 42.1391 58.2192 38.2336C58.0831 38.092 57.9194 37.9785 57.7393 37.8994L57.1287 37.634C57.1287 37.634 58.2172 42.3956 58.7053 44.9988C58.7672 45.3303 58.9295 45.6342 59.1688 45.8714C60.8417 47.5292 61.9453 48.8198 62.8687 50.184C63.2703 50.7767 63.502 51.4663 63.5501 52.1808C63.8045 55.9625 63.6821 61.1593 63.2607 64.0548C63.1754 64.642 63.0331 64.849 62.6501 65.1591C59.0278 68.0889 53.0361 73.2465 50.4645 75.7906C50.1936 76.0588 50.0939 76.1791 49.9282 76.4294C49.5906 76.9403 49.2289 77.6953 49.2289 77.6953C49.2289 77.6953 48.6184 75.8236 48.4829 74.8026C48.4197 74.3261 48.4142 74.1947 48.4836 73.7086C48.7937 71.5227 50.3215 66.4806 50.5711 65.7257C50.5924 65.6603 50.6034 65.5923 50.6034 65.5235V65.0497C50.0499 66.2056 47.2067 72.6023 46.6051 74.8012C46.4786 75.2646 46.4992 75.4468 46.6202 75.7934C46.9888 76.853 48.0635 79.4789 48.5572 80.5543C48.5572 80.5543 49.7254 78.365 50.4027 77.2621C50.5924 76.9534 50.8242 76.6756 51.0896 76.4294C53.1111 74.5585 60.3831 68.4877 63.7798 65.934C64.2357 65.5916 64.3739 65.3489 64.4976 64.8751C65.8721 59.6274 66.449 53.5938 65.7766 47.8991C65.7491 47.6646 65.6707 47.4604 65.5552 47.2548Z" fill="white"/>
<path d="M50.6625 31.9057C50.8014 31.6643 50.8537 31.3838 50.8062 31.1101C50.6928 30.4507 50.5216 29.6744 50.3827 29.0879C50.3565 28.9779 50.2823 28.8865 50.1805 28.8376L49.1567 28.3474C49.0219 28.2827 48.8706 28.2621 48.7235 28.2876C46.2509 28.7242 43.6497 29.2385 41.6832 29.6854C41.5223 29.7219 41.3855 29.8243 41.3023 29.9673L40.6903 31.0269C40.6429 31.1088 40.6897 31.2126 40.7825 31.2305C41.2975 31.3274 42.3495 31.5158 42.7098 31.5694C42.9312 31.6024 43.0062 31.5963 43.1884 31.5206C44.4343 31.0036 46.4723 30.2121 47.9871 29.6627C48.1074 29.6194 48.2367 29.6174 48.3584 29.6566L49.0542 29.8793C49.1553 29.9117 49.2406 29.9811 49.2928 30.0739C49.4833 30.4095 49.682 30.7773 49.8009 31.0201C49.8855 31.1926 49.8381 31.423 49.6937 31.632C49.1801 32.376 48.2993 33.5497 47.6949 34.2827C47.5615 34.4443 47.5175 34.6602 47.5759 34.8616C47.9307 36.0876 48.7022 38.6076 49.1134 39.813C49.1642 39.9608 49.2385 40.0736 49.354 40.1795L49.9343 40.7076C49.9343 40.7076 49.013 36.4438 48.7929 35.224C48.7586 35.0335 48.7716 34.8396 48.881 34.6801C49.3678 33.9671 50.2396 32.6414 50.6625 31.9057Z" fill="white"/>
<path d="M72.7563 35.4111C72.6855 35.0886 72.5803 34.9524 72.3121 34.753C69.5452 32.6944 64.5677 29.7714 61.607 28.5283C61.2247 28.3681 60.799 28.3584 60.4099 28.5008C58.9982 29.0178 56.7402 29.9681 54.3941 31.0696C54.3941 31.0696 55.4269 31.1466 55.9206 31.2037C56.1722 31.2326 56.2699 31.2278 56.5146 31.1611C57.2339 30.9658 58.5121 30.6488 59.5187 30.4205C60.0097 30.3091 60.524 30.4185 60.9276 30.7196C62.3069 31.7469 64.5237 33.5326 65.9415 34.7242C66.1884 34.9311 66.4682 35.0982 66.7673 35.2179C68.9298 36.0849 69.8794 36.5174 70.3641 36.7663C70.7038 36.941 70.9479 37.2538 71.0435 37.6237C71.6052 39.7931 71.9814 43.1169 72.1766 45.5159C72.2131 45.9608 72.1539 46.4057 72.0047 46.8265C71.3955 48.5482 69.8821 51.4086 69.0357 52.7762C68.9601 52.8986 68.8803 52.9935 68.7332 53.12C68.4334 53.3786 67.9046 53.8049 67.5182 54.104C67.4426 54.1624 67.3979 54.2511 67.3972 54.346C67.3882 55.2763 67.2095 57.0737 67.2095 57.0737C69.2846 54.4712 71.2587 51.0978 73.0121 47.5134C73.1565 47.2184 73.2115 47.0527 73.241 46.7763C73.6529 42.932 73.4061 38.365 72.7563 35.4111Z" fill="white"/>
<path d="M45.1907 81.9583C44.7025 80.8609 42.1611 74.8479 41.4735 72.5465C41.2308 71.7324 41.1999 71.5117 41.2934 70.5944C41.8717 64.9397 43.9028 55.9418 44.2225 54.7083C44.2899 54.4477 44.281 54.3769 44.2342 54.1115C44.1517 53.6425 43.8794 52.0294 43.8794 52.0294C42.9608 54.1575 39.6892 62.9491 38.4811 68.1232C38.2535 69.0982 38.2934 69.3595 38.4983 69.8903C40.2359 74.3934 44.6626 82.5262 45.4767 83.7556L45.2945 82.3385C45.2773 82.2065 45.245 82.0786 45.1907 81.9583Z" fill="white"/>
<path d="M41.248 82.309C41.248 82.309 40.2833 81.6833 39.987 81.4866C39.6796 81.2824 39.5737 81.1937 39.428 81.0624C37.4161 79.2396 30.3545 70.5622 28.2381 66.79C27.8833 66.1574 27.7795 65.859 27.8138 65.2216C27.853 64.4948 27.994 63.0908 28.1377 62.267C28.2271 61.7548 28.3447 61.4151 28.7806 61.0197C29.9804 59.9299 31.9195 57.9826 32.9323 56.9513C33.3751 56.5009 33.5979 56.2135 33.8337 55.7713C34.762 54.0304 37.6017 47.8647 38.5527 45.3302C38.7211 44.8819 38.7314 44.7554 38.6668 44.2879C38.4846 42.9601 37.425 39.5304 37.425 39.5304L37.3343 40.678C37.3281 40.7571 37.3315 40.8361 37.3446 40.9145C37.4291 41.411 37.7509 43.3768 37.7406 44.3876C37.7372 44.7355 37.72 44.8634 37.5323 45.2326C36.1069 48.0366 30.5429 55.5156 27.0265 59.5634C26.6305 60.0193 26.5177 60.3218 26.4084 60.8375C26.2269 61.6929 26.0206 63.6436 25.8879 65.1948C25.8164 66.0282 25.8721 66.3128 26.4015 67.1936C28.5234 70.7196 35.7439 79.166 38.0989 81.1229C38.2543 81.2522 38.4207 81.3636 38.5981 81.4598C39.4266 81.9061 41.6915 83.0275 41.6915 83.0275L41.3415 82.4135C41.3189 82.3709 41.2865 82.3358 41.248 82.309Z" fill="white"/>
<path d="M30.7595 31.9958L35.2454 30.5924C35.5094 30.512 35.7322 30.3318 35.8656 30.0905L38.257 25.9711C38.3141 25.8735 38.2426 25.7511 38.1291 25.7525L36.0849 25.78C35.9082 25.782 35.6827 25.8178 35.5149 25.8742C33.7375 26.4676 31.2009 27.5945 29.7735 28.3447C29.6126 28.4293 29.462 28.5661 29.3479 28.707L27.1882 31.366C27.1173 31.4533 27.0259 31.522 26.9227 31.5661L25.5235 32.1594C25.4561 32.1876 25.4025 32.2406 25.3715 32.3066L25.3062 32.4475C25.3062 32.4475 28.2615 32.3547 29.2571 32.2791C29.7996 32.2378 30.239 32.1539 30.7595 31.9958Z" fill="white"/>
<path d="M38.9782 22.2849C44.6268 21.86 51.1184 21.9803 52.6923 22.0174C52.9274 22.0229 53.1599 22.0628 53.3826 22.1364L54.5357 22.5214C51.7008 22.6706 44.8517 23.2812 42.08 23.7577L43.057 23.9104C43.1265 23.9214 43.1953 23.9248 43.2654 23.92C45.3158 23.7928 49.33 23.6642 51.0923 23.6388C51.522 23.6326 51.7462 23.6718 52.1842 23.8389C53.21 24.2308 55.2694 25.1645 56.1192 25.5957C56.5641 25.8219 56.8742 25.8968 57.3294 25.9154C58.2508 25.9532 59.6604 26.0508 60.7034 26.1616C60.986 26.1918 61.2604 26.2729 61.5148 26.4008C63.6587 27.4797 66.2152 29.0109 67.9665 30.1881C68.0689 30.2569 68.1824 30.3043 68.3041 30.3284L69.1698 30.4989C69.1698 30.4989 66.3933 27.6598 65.2986 26.6944C65.1412 26.5549 64.9693 26.4332 64.7864 26.3286C60.6498 23.9626 56.9306 22.0332 54.8348 21.1524C54.4986 21.0115 54.1438 20.9255 53.7807 20.898C47.382 20.4133 40.6828 20.5322 35.7328 20.9668C35.3794 20.9977 35.0975 21.1689 34.9297 21.413C34.7372 21.6936 34.4202 22.2003 34.1321 22.6679C33.9911 22.8962 33.8185 23.1018 33.6171 23.2785C32.7246 24.0596 31.2249 25.322 30.2754 26.0378C30.1936 26.0997 30.1523 26.1306 30.087 26.1753C29.6916 26.4469 28.3776 27.3126 28.1397 27.4687C28.049 27.5278 28.0283 27.5443 27.9623 27.6296C27.886 27.7279 27.492 28.234 27.492 28.234C31.4326 26.0185 36.452 23.2393 38.171 22.4836C38.4268 22.3729 38.6984 22.3055 38.9782 22.2849Z" fill="white"/>
<path d="M20.5831 34.7847C20.5343 34.85 20.4738 34.9057 20.4071 34.9531C16.9004 37.4553 14.9359 39.0491 14.1569 39.7037C13.8406 40.0138 13.538 40.3157 13.2616 40.6024C13.0141 40.8589 12.9563 40.9551 12.9398 41.158C12.9261 41.3299 12.9144 41.5595 12.9151 41.6922C12.9151 41.7665 12.9343 41.8249 12.9756 41.8868C13.0251 41.9611 13.3022 42.276 13.3675 42.3413C13.3978 42.3716 13.4438 42.3819 13.4789 42.3571C13.998 41.9927 14.7269 41.4509 15.3863 40.9476C15.4392 40.907 15.5362 40.8087 15.5726 40.7461C15.684 40.5543 15.8311 40.2772 15.9143 40.1018C15.9694 39.9856 16.0058 39.9485 16.1399 39.8639C16.2726 39.78 16.6721 39.5291 16.6721 39.5291C16.6721 39.5291 16.3737 40.7564 16.1598 41.1807C16.0862 41.3271 16.0161 41.4289 15.9611 41.4866C15.4447 42.025 14.5075 43.0715 14.0407 43.6457C13.8846 43.8375 13.9368 44.0782 14.0633 44.2659C14.4938 44.9047 15.3877 46.0048 15.9322 46.5796C16.1 46.7563 16.1763 46.8299 16.3297 46.9172C16.5538 47.0451 16.7126 47.0967 16.7126 47.0967C16.7126 47.0967 17.161 44.9466 17.3514 44.2783C17.4161 44.0514 17.5577 43.8705 17.8417 43.8004C20.1417 43.2297 25.1075 42.4046 25.1075 42.4046C24.5849 41.7795 22.8391 39.9822 22.311 39.5284C22.1522 39.3915 22.0037 39.3235 21.7953 39.2994C21.1538 39.2258 19.0505 39.0725 19.0505 39.0725C19.0505 39.0725 19.2327 38.871 19.3681 38.7328C19.4933 38.6049 19.5662 38.5561 19.7353 38.4977C22.3138 37.6045 25.7524 36.3042 27.763 35.4654C28.1996 35.2832 28.4079 35.1546 28.7565 34.795C28.9078 34.6382 29.2145 34.2958 29.3891 34.0868C29.4249 34.0441 29.4441 34.0125 29.4537 33.9582C29.4647 33.8956 29.4799 33.7822 29.4799 33.7822C29.4799 33.7822 28.6211 34.4264 28.2828 34.6623C27.9706 34.8796 27.7698 34.9793 27.402 35.0748C26.6931 35.2591 25.3639 35.5747 24.5725 35.7507C24.3566 35.7989 24.2528 35.8009 24.0575 35.7294C23.931 35.6833 23.6883 35.5878 23.5453 35.5204C23.3892 35.4475 23.3184 35.4372 23.1499 35.475C22.4479 35.6332 20.5329 36.1048 20.5329 36.1048C20.5329 36.1048 21.4144 35.3189 21.4804 35.268C21.5636 35.2041 21.6035 35.1821 21.7445 35.1257C22.408 34.8603 23.2269 34.5646 23.9186 34.2841C24.0768 34.2195 24.1442 34.1431 24.1572 33.9871C24.2012 33.4549 24.3518 32.495 24.4433 31.991C24.4694 31.8473 24.5148 31.7689 24.6296 31.6781C25.0325 31.3584 26.5225 30.217 26.8766 29.9557C26.8993 29.9337 26.9213 29.9124 26.944 29.8911L27.3449 29.396C26.2853 30.0121 24.3924 31.1349 23.4167 31.7503C22.9966 32.015 22.7923 32.156 22.3791 32.4819C22.333 32.5184 22.2931 32.5603 22.2567 32.6064C21.9975 32.9302 20.9517 34.2868 20.5831 34.7847Z" fill="white"/>
<path d="M19.0071 15.2206C19.0071 13.2053 19.0071 11.1899 19.0071 9.17389C21.576 8.9463 24.1476 8.75377 26.7206 8.59631C26.7206 8.92567 26.7206 9.25572 26.7206 9.58507C24.4776 9.7219 22.2354 9.88624 19.9952 10.0767C19.9952 10.5773 19.9952 11.0778 19.9952 11.5784C21.9782 11.4099 23.9619 11.2621 25.947 11.1356C25.947 11.465 25.947 11.795 25.947 12.1244C23.9619 12.2509 21.9775 12.3987 19.9952 12.5672C19.9952 13.0932 19.9952 13.6192 19.9952 14.1459C22.2354 13.9554 24.4776 13.7918 26.7206 13.6542C26.7206 13.9836 26.7206 14.313 26.7206 14.643C24.1476 14.8005 21.5767 14.993 19.0071 15.2206Z" fill="white"/>
<path d="M8.50757 16.3483C8.50757 14.3329 8.50757 12.3176 8.50757 10.3016C10.5408 10.0444 12.5754 9.80996 14.6127 9.5975C14.9654 9.56037 15.2522 9.57274 15.4908 9.63325C15.7486 9.69926 15.9563 9.81203 16.1075 9.96742C16.2581 10.1221 16.3626 10.3147 16.4176 10.5395C16.4637 10.7279 16.4871 10.9342 16.4871 11.1528C16.4871 11.388 16.4871 11.6238 16.4871 11.859C16.4871 12.0783 16.4637 12.288 16.4176 12.4826C16.3613 12.7171 16.2554 12.9282 16.1041 13.1097C15.9514 13.2919 15.7424 13.4418 15.4846 13.556C15.2487 13.6598 14.9634 13.7279 14.6134 13.7643C12.9054 13.9424 11.1988 14.1363 9.49358 14.3453C9.49358 14.9717 9.49358 15.5988 9.49358 16.2252C9.16353 16.2658 8.83555 16.307 8.50757 16.3483ZM9.4922 13.3573C11.3019 13.1352 13.1138 12.9303 14.9262 12.7432C15.237 12.7109 15.4901 12.4324 15.4894 12.121C15.4894 11.7675 15.4894 11.4141 15.4894 11.0607C15.4894 10.7492 15.2364 10.5216 14.9262 10.5539C13.1138 10.741 11.3019 10.9459 9.4922 11.168C9.4922 11.8975 9.4922 12.627 9.4922 13.3573Z" fill="white"/>
<path d="M63.2358 14.7709C62.8535 14.7447 62.5448 14.7001 62.2897 14.6327C61.9995 14.5557 61.7595 14.4395 61.578 14.2875C61.3772 14.1197 61.237 13.9079 61.162 13.6584C61.1008 13.4541 61.0706 13.2238 61.0706 12.9543C61.0706 12.0563 61.0706 11.1583 61.0706 10.2603C61.0706 9.99073 61.1001 9.76383 61.162 9.56717C61.237 9.32652 61.3772 9.13193 61.578 8.98891C61.7588 8.85964 61.9988 8.77369 62.289 8.7345C62.5434 8.70012 62.8528 8.696 63.2351 8.72212C64.5745 8.81357 65.9133 8.91396 67.2513 9.02467C67.6336 9.05629 67.9431 9.10718 68.1968 9.17937C68.4869 9.26257 68.7262 9.38427 68.9071 9.54105C69.1078 9.71432 69.2474 9.93022 69.3224 10.1819C69.3836 10.3875 69.4131 10.6185 69.4131 10.888C69.4131 11.786 69.4131 12.684 69.4131 13.582C69.4131 13.8516 69.3836 14.0778 69.3217 14.2724C69.2474 14.511 69.1078 14.7014 68.9064 14.8396C68.7255 14.9648 68.4869 15.0445 68.1961 15.0775C67.941 15.1064 67.6316 15.1044 67.2506 15.0734C65.914 14.9627 64.5752 14.8623 63.2358 14.7709ZM62.6348 9.67513C62.3234 9.6545 62.0703 9.89172 62.0703 10.2032C62.0703 11.1816 62.0703 12.1608 62.0703 13.1392C62.0703 13.4507 62.324 13.7195 62.6348 13.7402C62.8005 13.7512 62.9669 13.7622 63.1326 13.7732C63.1684 13.7766 63.2055 13.7794 63.2461 13.7821C64.5787 13.8729 65.9105 13.9733 67.2424 14.0833C67.2678 14.0847 67.2933 14.0867 67.3187 14.0881C67.4968 14.1025 67.6749 14.1177 67.853 14.1328C68.1645 14.1589 68.4175 13.9279 68.4168 13.6164C68.4168 12.638 68.4168 11.6588 68.4168 10.6804C68.4168 10.3689 68.1638 10.0939 67.853 10.0677C66.1141 9.92129 64.3751 9.78996 62.6348 9.67513Z" fill="white"/>
<path d="M74.9518 15.8139C74.9518 14.1279 74.9518 12.4419 74.9518 10.756C73.7726 10.626 72.5926 10.5036 71.412 10.3888C71.412 10.0594 71.412 9.72938 71.412 9.40002C74.1019 9.662 76.789 9.96247 79.4727 10.3015C79.4727 10.6308 79.4727 10.9609 79.4727 11.2902C78.2949 11.1417 77.1163 11.0001 75.9378 10.866C75.9378 12.552 75.9378 14.2379 75.9378 15.9239C75.6084 15.8868 75.2798 15.8503 74.9518 15.8139Z" fill="white"/>
<path d="M50.7733 14.1973C50.7733 12.182 50.7733 10.1667 50.7733 8.15063C53.349 8.21252 55.9247 8.30947 58.499 8.44149C58.499 8.77084 58.499 9.10089 58.499 9.43025C56.2547 9.31542 54.0098 9.22672 51.7641 9.16483C51.7641 9.6654 51.7641 10.166 51.7641 10.6665C53.7519 10.7209 55.7391 10.7965 57.7255 10.8934C57.7255 11.2228 57.7255 11.5528 57.7255 11.8822C55.7391 11.7859 53.7519 11.7103 51.7641 11.6553C51.7641 12.1813 51.7641 12.7073 51.7641 13.234C54.0098 13.2959 56.2547 13.3839 58.499 13.4994C58.499 13.8288 58.499 14.1581 58.499 14.4882C55.9247 14.3555 53.349 14.2585 50.7733 14.1973Z" fill="white"/>
<path d="M42.2162 14.1218C41.8339 14.1239 41.5231 14.1026 41.268 14.0544C40.9779 13.9994 40.7379 13.9011 40.5557 13.7622C40.3542 13.6089 40.2139 13.4074 40.139 13.1633C40.0778 12.9632 40.0475 12.7356 40.0475 12.4661C40.0475 11.5757 40.0475 10.6845 40.0475 9.79411C40.0475 9.21653 40.1981 8.77991 40.4952 8.49868C40.7915 8.21746 41.2776 8.082 42.0251 8.0765C43.9331 8.06344 45.8412 8.06962 47.7493 8.09438C47.7493 8.42374 47.7493 8.75378 47.7493 9.08314C45.7044 9.05632 43.6595 9.05082 41.6146 9.06801C41.3024 9.07076 41.0487 9.32654 41.0487 9.63802C41.0487 10.5766 41.048 11.5152 41.048 12.4537C41.048 12.495 41.0487 12.5362 41.0487 12.5768C41.0487 12.8876 41.3024 13.1386 41.6146 13.1358C41.7789 13.1344 41.9432 13.1331 42.1083 13.1324C42.1454 13.1331 42.1846 13.1337 42.2265 13.1331C43.8836 13.1227 45.5414 13.1269 47.1985 13.1454C47.1985 12.6194 47.1985 12.0934 47.1985 11.5667C46.1245 11.5543 45.0498 11.5482 43.9758 11.5488C43.9785 11.2195 43.9806 10.8894 43.9833 10.5601C45.3853 10.5601 46.7873 10.5704 48.1893 10.591C48.1893 11.7764 48.1893 12.9619 48.1893 14.1466C46.1981 14.1177 44.2075 14.1088 42.2162 14.1218Z" fill="white"/>
<path d="M31.4698 14.3851C31.0875 14.4023 30.7774 14.392 30.5223 14.3535C30.2314 14.3095 29.9915 14.2201 29.8099 14.0881C29.6092 13.943 29.4689 13.747 29.3939 13.5057C29.3327 13.3077 29.3025 13.0808 29.3025 12.8119C29.3025 11.3597 29.3025 9.90751 29.3025 8.456C29.6325 8.43881 29.9626 8.42231 30.2926 8.4065C30.2926 9.89995 30.2926 11.3941 30.2926 12.8875C30.2926 13.199 30.5463 13.4397 30.8578 13.4252C32.5404 13.3469 34.2236 13.2843 35.9075 13.2361C36.2197 13.2272 36.4727 12.9673 36.4727 12.6558C36.4727 11.1624 36.4727 9.66892 36.4727 8.17478C36.8028 8.16584 37.1328 8.15759 37.4635 8.15002C37.4635 9.60222 37.4635 11.0544 37.4635 12.5059C37.4635 12.7748 37.434 13.0044 37.3721 13.2066C37.2971 13.4534 37.1569 13.6597 36.9561 13.8206C36.7746 13.9664 36.5346 14.0736 36.2431 14.1396C35.988 14.1974 35.6779 14.2304 35.2955 14.2421C34.0201 14.2813 32.7446 14.3287 31.4698 14.3851Z" fill="white"/>
<path d="M87.2225 3.73088C72.4929 1.19228 57.9813 0 43.9998 0C30.0182 0 15.5059 1.1916 0.776968 3.73088C0.556938 9.62974 0.307342 18.7458 0.727461 26.482C1.66465 43.7289 5.46635 57.117 12.6909 68.6135C19.8934 80.0757 31.0469 89.9323 43.9998 95.7851C56.9526 89.9323 68.1054 80.0757 75.3086 68.6135C82.5332 57.117 86.3349 43.7289 87.272 26.482C87.6929 18.7458 87.4433 9.62974 87.2225 3.73088ZM85.6136 26.3926C84.6922 43.3472 80.9709 56.4823 73.9025 67.7307C66.8347 78.9776 56.2368 88.2677 44.0004 93.9589C31.764 88.2677 21.1655 78.9776 14.0984 67.7307C7.02994 56.483 3.30869 43.3472 2.38731 26.3926C2.08615 20.854 2.08683 13.8928 2.38937 5.14319C16.2251 2.83288 30.2183 1.66191 44.0011 1.66191C57.7839 1.66191 71.7765 2.83288 85.6122 5.14319C85.914 13.8921 85.9147 20.854 85.6136 26.3926Z" fill="white"/>
</svg>
